<svg viewBox="0 0 18 19" fill="none" xmlns="http://www.w3.org/2000/svg">
<g clip-path="url(#clip0_66_103)">
<path d="M15.273 10.0303C15.4136 9.88962 15.4926 9.69889 15.4926 9.50001C15.4926 9.30114 15.4136 9.11041 15.273 8.96976L11.0302 4.72701C10.961 4.65538 10.8783 4.59824 10.7868 4.55894C10.6953 4.51963 10.5968 4.49894 10.4973 4.49807C10.3977 4.49721 10.2989 4.51619 10.2067 4.5539C10.1146 4.59161 10.0308 4.6473 9.96042 4.71772C9.89 4.78814 9.83431 4.87187 9.7966 4.96405C9.75889 5.05622 9.73991 5.15498 9.74078 5.25456C9.74164 5.35415 9.76233 5.45256 9.80164 5.54407C9.84094 5.63557 9.89808 5.71833 9.96971 5.78751L12.9322 8.75001L2.99996 8.75001C2.80105 8.75001 2.61029 8.82903 2.46963 8.96968C2.32898 9.11033 2.24996 9.3011 2.24996 9.50001C2.24996 9.69892 2.32898 9.88969 2.46963 10.0303C2.61029 10.171 2.80105 10.25 2.99996 10.25L12.9322 10.25L9.96971 13.2125C9.8331 13.354 9.7575 13.5434 9.75921 13.7401C9.76092 13.9367 9.83979 14.1248 9.97885 14.2639C10.1179 14.4029 10.306 14.4818 10.5027 14.4835C10.6993 14.4852 10.8888 14.4096 11.0302 14.273L15.273 10.0303Z" fill="#878787"/>
</g>
<defs>
<clipPath id="clip0_66_103">
<rect width="18" height="18" fill="white" transform="translate(18 0.5) rotate(90)"/>
</clipPath>
</defs>
</svg>
