<svg width="40" height="40" viewBox="0 0 40 40" fill="none" xmlns="http://www.w3.org/2000/svg">
<path d="M7.47034 6.69849C7.42971 6.69849 7.38049 6.71333 7.33752 6.72114C7.59768 7.99224 7.64534 9.17192 7.60081 10.2969C8.62502 10.2032 9.63284 10.125 10.625 10.0547C9.68752 9.03911 9.24221 7.40786 7.97659 6.80942C7.82815 6.75239 7.67034 6.70317 7.53752 6.69849H7.47034ZM19.7266 11.1485C14.7266 11.1641 9.78909 11.4844 5.06096 11.9532C4.77581 12.0079 3.88674 12.125 3.92737 12.5704C3.93909 12.7188 4.14456 13.0782 4.96252 13.0469C15.0156 12.6407 23.2344 12.2266 33.1719 13.0469C33.5938 13.0313 34.4063 13.1485 34.6875 12.7813C34.3672 12.2422 33.586 12.0235 33.0313 11.9454C28.6094 11.3594 24.1406 11.1329 19.7266 11.1485ZM24.2891 14.0079V15.5469H25.6953V14.0469C25.2266 14.0313 24.7578 14.0157 24.2891 14.0079ZM14.4453 14.0938L13.0391 14.1407V15.5469H14.4453V14.0938ZM6.55237 16.9532C5.41956 16.9532 4.29299 17.2501 3.50549 17.7735C2.71721 18.2969 2.25549 18.9844 2.25549 20.0001V20.0079L2.10237 25.5469H38.0391V25.1094C37.4219 23.2422 36.8047 21.1251 36.0703 19.5079C35.6953 18.6876 35.2891 18.0079 34.8828 17.5704C34.4844 17.1329 34.1328 16.9532 33.7422 16.9532H6.55237ZM4.8344 18.7501H11.086V20.5469H3.56174L3.5844 20.0001C3.5844 19.4376 4.15393 18.7501 4.8344 18.7501ZM12.4922 18.7501H26.8672V23.7501H12.4922V18.7501ZM28.2735 18.7501H32.8047C34.9922 18.7501 35.3985 21.7579 35.9297 23.7501H28.2735V18.7501ZM3.50315 21.9532H11.086V23.7501H3.42815L3.50315 21.9532ZM2.06331 26.9532L1.96252 30.5469H6.85081C7.42659 30.2032 8.10159 30.0001 8.82034 30.0001C10.6641 30.0001 12.2031 31.3126 12.5703 33.0469H25.6016C25.9375 31.2735 27.5 29.9219 29.3672 29.9219C30.1406 29.9219 30.8594 30.1563 31.461 30.5469H38.0391V26.9532H2.06331ZM29.3672 31.3282C28.0235 31.3282 26.9453 32.4063 26.9453 33.7501C26.9453 35.0938 28.0235 36.1719 29.3672 36.1719C30.711 36.1719 31.7891 35.0938 31.7891 33.7501C31.7891 32.4063 30.711 31.3282 29.3672 31.3282ZM8.82034 31.4063C7.4719 31.4063 6.39612 32.4844 6.39612 33.8282C6.39612 35.1719 7.4719 36.2501 8.82034 36.2501C10.1641 36.2501 11.2422 35.1719 11.2422 33.8282C11.2422 32.4844 10.1641 31.4063 8.82034 31.4063ZM2.13752 31.9532C2.2344 32.1329 2.36409 32.3126 2.5219 32.4688C2.8844 32.8282 3.36643 33.0469 3.79299 33.0469H5.07034C5.15159 32.6563 5.29299 32.2891 5.48362 31.9532H2.13752ZM32.7422 31.9532C32.9297 32.2891 33.0547 32.6563 33.1328 33.0469H34.875L38.0391 31.9922V31.9532H32.7422Z" fill="#ED7575"/>
</svg>
